<svg version="1.1" xmlns="http://www.w3.org/2000/svg" style="display: block;" viewBox="0 0 2048 1693" width="80" height="65.97938144329898" preserveAspectRatio="none">
<path transform="translate(0,0)" fill="rgb(21,42,57)" d="M 974.656 1685.12 C 958.773 1660.14 954.434 1564.02 952.902 1531.96 C 950.728 1492.37 949.701 1452.71 949.823 1413.06 C 949.971 1220.51 969.518 1014.27 1030.08 830.165 C 1042.3 793.039 1061.74 751.043 1078.65 715.84 C 1107.7 655.357 1142.08 596.861 1173.67 537.75 C 1195.58 496.739 1220.56 455.784 1233.78 411.039 C 1255.8 336.558 1250.35 260.261 1241.36 184.334 C 1240.08 173.564 1260.63 142.166 1270.38 149.962 C 1273.58 157.773 1267.55 163.449 1266.19 172.591 C 1265.47 187.307 1270.05 210.365 1278.22 222.102 C 1281.05 233.256 1287.84 248.014 1292.58 258.742 C 1302.05 280.14 1314.16 309.929 1317.61 333.19 C 1325.81 388.457 1325.64 448.454 1326.1 504.287 L 1326.73 713.943 L 1322.77 1368.31 C 1355.13 1368.95 1389.48 1368.69 1422.01 1369.04 L 1845.79 1370.97 C 1887.38 1370.88 1928.97 1371.05 1970.56 1371.47 C 1982.02 1371.51 2041.9 1369.58 2046.4 1376.91 C 2047.29 1392.96 2002.36 1491.92 1993.34 1513.01 L 1956.72 1597.57 C 1948.06 1617.58 1939.3 1638.86 1929.31 1658.18 C 1925.15 1666.23 1916.84 1682.36 1908.76 1686.09 C 1904.14 1688.22 1898.35 1689.01 1893.21 1689.03 C 1837.96 1689.2 1782.6 1688.99 1727.36 1689.04 L 1316.97 1688.27 L 1115.13 1687.99 L 1044.49 1687.89 C 1028.3 1687.9 987.936 1689.68 974.656 1685.12 z M 1153.19 1642.04 C 1154.8 1641.29 1157.78 1640.43 1157.77 1638.17 C 1157.63 1617.51 1153.26 1599.01 1149 1578 C 1143.05 1548.62 1142.41 1515.55 1134.63 1486.97 C 1133.32 1482.17 1121.7 1482.54 1117.34 1483.11 C 1110.94 1490.48 1112.01 1499.48 1112.64 1508.6 C 1113.95 1527.59 1127.37 1630.07 1139.49 1640.18 C 1143.05 1643.16 1148.89 1642.36 1153.19 1642.04 z M 1115.34 1375.94 C 1119.9 1374.49 1119.17 1375.46 1121.78 1372.31 C 1124.81 1358.99 1120.88 1327.61 1119.63 1312.81 C 1118.22 1296.15 1119.74 1263.56 1115.41 1248.69 C 1112.52 1245.24 1110.54 1244.71 1105.93 1244.33 C 1104.19 1244.17 1102.44 1244.11 1100.69 1244.15 C 1097.34 1245.82 1095.4 1246.88 1094.08 1250.48 C 1089.56 1262.76 1094.19 1357.42 1100.56 1370.88 C 1101.55 1372.98 1102.91 1374.05 1105.06 1374.8 C 1108.17 1375.9 1112.06 1375.79 1115.34 1375.94 z M 1105.61 1153.78 C 1109.36 1152.79 1112.35 1152.55 1114.73 1149.71 C 1117.12 1138.68 1120.45 1052.03 1117.77 1043.59 C 1114.3 1040.57 1109.29 1040.03 1104.8 1039.9 C 1090.67 1050.28 1090.61 1130.83 1094.71 1149.15 C 1095.27 1151.69 1103.13 1153.46 1105.61 1153.78 z M 1118.49 964.807 C 1120.77 964.009 1125.35 962.772 1125.89 960.169 C 1130.71 937.157 1133.59 912.783 1135.55 889.343 C 1136.49 878.244 1132.82 875.345 1122.29 875.092 C 1113.06 880.337 1109.73 910.667 1109.09 921.068 C 1108.28 934.308 1098.13 964.364 1118.49 964.807 z M 1144.1 816.693 C 1157.94 807.847 1163.28 776.932 1168.1 761.4 C 1171.21 751.386 1172.34 742.375 1161.32 737.958 C 1146.3 744.545 1140.82 782.395 1136.58 797.172 C 1133.76 806.969 1134.44 812.895 1144.1 816.693 z M 1258 210.911 C 1256.74 215.192 1256.6 213.548 1257.91 217.474 C 1259.61 218.929 1260.25 219.566 1262.17 220.788 C 1262.2 215.761 1261.77 214.238 1258 210.911 z M 1185.7 692.418 C 1196.23 684.266 1214.55 649.749 1207.31 637.191 C 1204.33 634.621 1203.33 634.906 1199.16 634.541 C 1193.18 640.144 1189.3 648.373 1186.05 655.87 C 1181.93 665.364 1166.81 690.297 1185.7 692.418 z M 1284.3 334.203 C 1281.11 340.724 1276.4 354.132 1283.92 359.186 C 1285.78 359.477 1287.67 359.818 1289.54 359.982 C 1296.4 352.838 1292.41 336.704 1284.3 334.203 z M 1280.84 394.497 C 1273.56 401.365 1270.23 417.742 1276.68 425.763 C 1278.17 426.235 1279.59 426.725 1281.11 427.076 C 1288.93 419.753 1290.92 405.746 1285.45 396.586 C 1283.33 395.33 1283.19 395.131 1280.84 394.497 z M 1264.55 465.874 C 1259.28 470.757 1253.98 491.291 1253.04 499.021 C 1252.7 501.725 1253.33 501.678 1254.84 503.265 C 1258.31 504.153 1259.14 504.332 1262.68 504.566 C 1270.02 498.44 1276.22 477.939 1272.52 468.835 C 1269.63 466.213 1269.04 466.08 1264.55 465.874 z M 1237.23 542.535 C 1231.45 549.056 1216.9 578.143 1222.61 586.461 C 1225.49 588.268 1225.89 588.678 1229.13 589.455 C 1238.13 581.723 1251.13 555.681 1245.31 544.722 C 1242.4 542.346 1241.24 542.701 1237.23 542.535 z"/>
<path transform="translate(0,0)" fill="rgb(172,175,178)" d="M 1261.31 233.088 C 1264.25 233.841 1264.26 234.089 1266.55 235.959 C 1268.06 239.218 1267.77 239.634 1267.17 243.368 C 1265.54 243.551 1265.65 243.401 1263.99 243.091 C 1261.72 240.385 1261.78 236.791 1261.31 233.088 z"/>
<path transform="translate(0,0)" fill="rgb(172,175,178)" fill-opacity="0.988235" d="M 1258 210.911 C 1261.77 214.238 1262.2 215.761 1262.17 220.788 C 1260.25 219.566 1259.61 218.929 1257.91 217.474 C 1256.6 213.548 1256.74 215.192 1258 210.911 z"/>
<path transform="translate(0,0)" fill="rgb(21,42,57)" d="M 1008.18 497.714 C 1018.36 497.894 1045.89 486.334 1056.68 482.531 C 1061.42 480.859 1063.76 478.907 1069.33 477.922 C 1048.02 517.432 1013.02 569.461 987.9 608.076 C 945.049 675.273 901.146 741.793 856.208 807.613 L 773.195 928.497 C 755.264 954.514 737.018 980.63 719.774 1007.12 C 716.522 1012.11 714.158 1018.85 713.943 1024.79 C 713.114 1047.69 713.309 1070.79 713.286 1093.72 L 713.143 1202.78 L 713.106 1535.51 C 713.065 1580.66 713.703 1626.18 712.79 1671.34 C 712.648 1678.37 710.126 1685.66 702.838 1687.05 C 682.224 1690.97 654.155 1689.64 633.025 1689.65 C 593.278 1689.75 553.53 1689.62 513.784 1689.26 C 495.175 1689.17 418.912 1691.17 405.67 1685.95 C 402.32 1682 400.688 1677.78 400.343 1672.61 C 399.019 1652.72 399.422 1631.91 399.441 1611.97 L 399.479 1508.1 L 399.221 1154.81 L 399.474 1080.77 C 399.55 1062.49 400.416 1043.21 397.765 1025.09 C 394.428 1002.28 352 951.278 336.601 929.377 L 203.555 740.829 C 181.993 710.252 159.347 680.421 139.072 648.908 C 137.312 645.826 133.267 639.793 133.764 636.314 C 135.179 626.401 143.626 616.309 151.03 609.882 C 166.636 596.337 186.562 576.906 206.481 570.728 C 222.632 574.517 237.597 588.012 253.049 596.564 C 264.66 580.045 306.32 505.749 319.497 502.646 C 321.255 502.232 323.021 502.283 324.552 503.322 C 339.709 513.612 359.292 643.461 386.975 643.518 C 390.112 642.341 391.556 640.836 392.963 637.763 C 399.969 622.462 393.864 579.064 410.197 571.378 C 413.542 569.804 417.334 570.343 420.636 571.727 C 433.555 577.139 505.96 654.317 516.565 668.739 C 532.009 689.744 547.864 727.245 569.088 740.69 C 593.579 725.824 611.514 671.668 635.323 656.122 C 663.179 637.934 697.644 700.45 712.083 715.061 C 738.342 682.843 756.547 633.293 778.768 597.678 C 780.344 595.152 781.727 593.63 784.396 592.432 C 796.718 596.016 806.152 641.576 824.477 650.144 L 826.349 649.9 C 829.798 642.932 829.439 627.505 829.836 621.812 C 830.698 609.474 835.012 556.017 845.208 548.196 C 856.845 539.268 924.665 523.344 940.893 518.583 C 954.798 514.465 968.661 510.207 982.48 505.809 C 990.742 503.15 999.856 499.607 1008.18 497.714 z"/>
<path transform="translate(0,0)" fill="rgb(243,121,45)" d="M 744.289 288.734 C 757.931 279.973 804.18 220.002 817.621 203.327 L 935.334 57.6288 C 946.322 44.1285 956.791 30.2958 967.688 16.7592 C 972.51 10.7699 979.185 4.22619 987.298 3.83638 C 991.58 3.6347 995.765 5.14536 998.931 8.03487 C 1009.81 18.0448 1031.98 48.62 1041.08 61.0376 C 1068.7 99.0342 1096.93 136.588 1125.75 173.683 C 1140.58 192.746 1145.51 203.505 1164.48 220.764 C 1191.81 202.143 1210.14 170.24 1235.31 153.523 C 1217.18 190.3 1237.01 211.272 1228.13 230.632 C 1222.45 242.992 1212.89 253.629 1204.87 264.503 C 1196.56 275.798 1188.61 287.347 1181.02 299.133 C 1143.24 358.383 1106.01 417.982 1069.33 477.922 C 1063.76 478.907 1061.42 480.859 1056.68 482.531 C 1045.89 486.334 1018.36 497.894 1008.18 497.714 C 1001.22 490.666 976.047 482.342 965.752 477.947 C 953.744 472.82 889.006 444.286 885.686 435.587 C 884.672 432.929 885.333 430.8 887.441 428.904 C 894.255 422.777 910.299 419.433 918.936 416.251 C 933.855 410.756 986.963 390.732 993.541 377.993 C 985.417 370.76 970.116 361.331 960.842 354.893 C 949.781 347.215 942.813 341.461 932.671 332.548 C 940.954 320.548 968.68 284.285 972.541 274.087 C 978.31 258.852 982.97 120.136 982.032 96.4448 C 956.36 132.311 930.496 163.053 902.507 197.155 L 843.039 270.937 L 790.766 336.528 C 778.769 351.558 766.743 368.03 752.463 380.978 C 749.736 383.45 746.481 385.288 742.693 384.926 C 730.541 383.765 680.882 297.255 665.801 280.83 L 664.899 279.863 C 660.482 312.309 655.885 361.963 663.04 394.07 C 664.519 400.708 691.399 424.676 687.805 428.297 C 670.044 446.189 635.354 460.082 611.887 470.941 C 612.498 482.084 621.367 522.883 623.866 537.864 C 602.609 515.636 584.048 491.102 564.665 467.272 C 559.413 460.815 542.73 441.211 535.756 439.705 C 524.044 437.176 475.181 479.808 457.417 477.11 C 453.687 476.544 450.904 473.12 448.695 470.303 C 439.006 457.948 430.337 444.576 421.001 431.926 C 403.458 408.155 385.02 384.545 366.608 361.437 C 348.817 339.108 331.36 316.436 313.306 294.324 C 304.938 284.076 295.614 274.607 287.411 264.229 C 280.663 255.692 274.768 246.373 268.724 237.332 C 264.832 271.679 271.253 315.809 272.278 350.86 C 272.678 364.546 276.624 384.686 274.611 397.792 C 269.674 406.051 197.514 456.416 184.489 462.973 C 183.866 463.12 181.349 463.111 181.138 462.088 C 175.08 432.759 190.827 395.767 192.912 365.584 C 181.727 374.769 169.851 388.732 158.316 398.867 C 137.453 417.2 116.014 435.838 95.3478 454.298 C 84.6301 463.872 53.6158 494.012 42.7386 499.613 C 28.1919 493.39 8.58844 466.219 3.11004 451.462 C 8.62578 432.995 32.4275 405.748 45.3312 389.847 L 98.8502 323.683 L 187.183 213.333 C 203.346 193.299 219.401 173.054 236.429 153.754 C 244.414 144.703 255.083 134.724 266.754 144.985 C 281.599 158.035 293.17 174.076 305.073 189.708 C 316.494 204.772 328.032 219.747 339.688 234.63 C 364.422 266.438 389.494 297.825 414.524 329.398 C 429.559 348.365 447.859 376.801 467.78 390.223 C 484.58 380.859 506.452 356.148 521.324 342.12 L 625.149 244.869 C 637.505 233.243 648.624 218.382 663.628 211.198 C 669.066 211.377 675.466 211.826 679.951 214.962 C 705.336 232.71 716.172 275.076 744.289 288.734 z"/>
<path transform="translate(0,0)" fill="rgb(243,121,45)" d="M 1293.43 156.672 C 1302.1 158.594 1309.07 168.298 1314.67 175.142 C 1341.16 207.761 1366.44 241.349 1390.45 275.836 C 1446.75 357.788 1501.39 443.757 1551.07 529.859 C 1567.85 558.945 1644.36 679.933 1641.9 704.532 L 1640.39 704.613 L 1637.49 701.245 C 1634.04 696.177 1628.39 690.572 1624.48 685.581 C 1617.52 676.684 1610.53 667.869 1603.38 659.121 L 1540.08 581.251 C 1514.06 549.291 1489.79 516.638 1463.13 482.995 C 1398.68 401.647 1334.53 313.516 1290.79 218.899 C 1281.36 198.501 1275.36 173.474 1293.43 156.672 z"/>
</svg>