<svg version="1.1" xmlns="http://www.w3.org/2000/svg" style="display: block;" viewBox="0 0 1200 1200" width="80" height="80" preserveAspectRatio="none">
<defs>
	<linearGradient id="Gradient1" gradientUnits="userSpaceOnUse" x1="302.764" y1="818.621" x2="254.21" y2="817.608">
		<stop class="stop0" offset="0" stop-opacity="0" stop-color="rgb(40,65,78)"/>
		<stop class="stop1" offset="1" stop-opacity="0.027451" stop-color="rgb(9,19,26)"/>
	</linearGradient>
</defs>
<path transform="translate(0,0)" fill="rgb(22,42,57)" d="M 690.976 271.422 L 704.843 271.084 C 705.775 286.122 704.44 298.108 707.732 312.931 C 709.928 310.94 712.326 308.813 714.199 306.524 C 716.588 303.604 715.336 302.848 718.077 299.536 C 719.225 304.842 720.01 319.884 720.688 321.658 C 720.404 334.859 720.258 338.667 723.385 351.552 C 722.983 355.014 723.075 357.22 720.741 359.867 C 716.222 362.741 711.264 361.607 705.821 361.152 C 706.276 373.322 699.79 402.214 715.436 404.053 C 726.706 400.653 726.481 376.044 731.802 371.039 C 733.815 373.405 733.785 376.11 734.285 379.275 C 735.787 401.362 734.923 430.277 734.936 453.056 L 734.899 589.938 L 734.391 752.222 C 734.394 778.272 735.851 815.458 734.573 839.907 C 754.607 843.385 803.416 841.777 825.819 841.945 L 1017.21 843.753 C 1023.1 843.798 1063.33 841.657 1065 842.837 C 1065.51 848.101 1067.65 858.847 1067.5 862.943 C 1062.54 876.628 1056.12 889.072 1051.42 903.465 C 1046.18 919.527 1035.44 937.443 1027.99 952.861 C 1022.71 963.781 1017.06 979.239 1011.1 989.127 C 1010.17 988.813 980.984 990.737 976.241 990.825 L 898.473 992.419 C 887.757 992.676 875.844 992.137 865.323 992.845 L 864.277 993.643 C 794.27 994.757 724.024 993.933 653.997 993.873 C 630.325 993.853 593.081 997.483 571.138 993.157 C 566.931 992.328 564.424 991.206 562.089 987.481 C 550.475 968.949 554.712 900.699 554.853 876.743 C 554.734 845.827 554.856 814.911 555.219 783.997 C 555.252 778.311 553.612 759.405 554.133 756.221 C 555.287 736.525 565.951 711.921 568.208 693.401 C 571.686 664.852 571.458 642.395 583.752 614.72 C 587.273 606.793 588.517 590.339 593.043 581.881 C 602.556 564.101 609.758 550.256 613.121 530.313 C 613.535 527.759 623.297 520.64 625.734 515.829 C 633.375 500.748 640.066 485.866 646.562 470.282 C 650.706 461.848 665.768 442.582 670.219 432.975 C 678.913 414.21 687.974 387.189 692.691 367.355 C 697.89 356.345 709.593 333.841 690.855 330.215 C 688.218 317.33 690.069 285.478 690.976 271.422 z M 638.845 893.556 C 625.318 909.367 627.577 938.492 637.69 955.544 C 639.519 953.984 642.19 951.632 642.682 949.322 C 645.774 934.782 647.741 907.064 640.2 894.417 L 638.845 893.556 z M 631.071 644.515 L 641.274 648.029 C 645.005 642.634 646.49 622.721 643.027 617.152 C 639.043 616.193 638.011 616.034 633.924 615.858 C 627.876 621.448 630.517 636.656 631.071 644.515 z M 619.862 781.383 L 618.076 781.651 C 617.379 785.36 617.611 811.093 617.989 815.548 C 617.874 819.497 617.847 829.71 620.315 832.429 C 623.197 835.603 631.418 846.336 635.956 842.583 C 641.059 828.991 630.192 813.661 628.235 804.699 L 628.011 803.636 C 627.462 798.223 627.407 786.804 626.111 782.519 L 624.701 781.895 L 619.862 781.383 z M 684.938 470.053 C 686.272 460.803 691.638 460.396 699.45 455.129 L 699.58 454.112 C 691.345 454.327 686.408 453.173 682.55 460.935 C 680.36 466.614 679.372 468.963 680.964 475.143 L 682.261 475.746 C 684.353 473.618 684.363 473.023 684.938 470.053 z M 627.831 721.433 C 627.991 712.73 629.176 701.305 624.642 693.885 L 622.876 692.753 C 615.536 697.813 617.202 718.31 618.94 726.41 C 618.931 730.955 618.254 733.341 622.032 736.199 C 629.335 734.657 628.07 727.222 627.831 721.433 z M 669.672 524.167 C 672.95 519.644 671.858 502.794 667.886 498.362 L 664.153 497.062 C 663.031 504.228 659.403 518.071 663.229 523.637 C 665.798 524.55 666.881 524.289 669.672 524.167 z M 654.934 570.321 C 657.49 563.112 662.06 546.952 654.25 541.992 L 647.898 541.976 C 647.963 549.599 647.383 563.908 650.786 570.49 L 652.478 571.416 L 654.934 570.321 z"/>
<path transform="translate(0,0)" fill="rgb(22,42,57)" fill-opacity="0.560784" d="M 628.011 803.636 L 628.235 804.699 C 630.192 813.661 641.059 828.991 635.956 842.583 C 631.418 846.336 623.197 835.603 620.315 832.429 C 617.847 829.71 617.874 819.497 617.989 815.548 C 618.513 819.037 618.451 822.198 620.875 824.43 L 622.742 823.709 C 625.72 819.352 627.887 808.96 628.011 803.636 z"/>
<path transform="translate(0,0)" fill="rgb(22,42,57)" fill-opacity="0.309804" d="M 617.989 815.548 C 617.611 811.093 617.379 785.36 618.076 781.651 L 619.862 781.383 L 619.465 782.813 C 618.795 789.69 618.877 800.815 618.712 808.013 C 619.799 805.697 620.988 802.263 623.014 801.032 L 625.275 803.148 C 627.297 797.31 624.794 789.497 626.111 782.519 C 627.407 786.804 627.462 798.223 628.011 803.636 C 627.887 808.96 625.72 819.352 622.742 823.709 L 620.875 824.43 C 618.451 822.198 618.513 819.037 617.989 815.548 z"/>
<path transform="translate(0,0)" fill="rgb(22,42,57)" fill-opacity="0.0862745" d="M 618.94 726.41 C 617.202 718.31 615.536 697.813 622.876 692.753 L 624.642 693.885 C 629.176 701.305 627.991 712.73 627.831 721.433 L 625.477 715.066 C 623.101 715.301 624.234 716.42 623.153 716.229 C 620.485 715.757 620.604 714.373 619.1 715.813 L 620.052 715.565 C 618.536 718.144 619.345 723.087 618.94 726.41 z"/>
<path transform="translate(0,0)" fill="rgb(22,42,57)" fill-opacity="0.117647" d="M 624.701 781.895 L 626.111 782.519 C 624.794 789.497 627.297 797.31 625.275 803.148 L 623.014 801.032 C 620.988 802.263 619.799 805.697 618.712 808.013 C 618.877 800.815 618.795 789.69 619.465 782.813 C 620.177 787.441 619.393 786.875 622.097 789.95 C 625.768 788.526 624.692 785.512 624.701 781.895 z"/>
<path transform="translate(0,0)" fill="rgb(29,44,58)" fill-opacity="0.537255" d="M 682.55 460.935 C 686.408 453.173 691.345 454.327 699.58 454.112 L 699.45 455.129 C 691.638 460.396 686.272 460.803 684.938 470.053 C 684.775 466.474 685.074 463.475 682.55 460.935 z"/>
<path transform="translate(0,0)" fill="rgb(29,44,58)" fill-opacity="0.0862745" d="M 682.55 460.935 C 685.074 463.475 684.775 466.474 684.938 470.053 C 684.363 473.023 684.353 473.618 682.261 475.746 L 680.964 475.143 C 679.372 468.963 680.36 466.614 682.55 460.935 z"/>
<path transform="translate(0,0)" fill="rgb(22,42,57)" fill-opacity="0.109804" d="M 619.862 781.383 L 624.701 781.895 C 624.692 785.512 625.768 788.526 622.097 789.95 C 619.393 786.875 620.177 787.441 619.465 782.813 L 619.862 781.383 z"/>
<path transform="translate(0,0)" fill="rgb(22,42,57)" d="M 577.747 433.722 C 584.911 435.57 602.387 436.505 608.425 431.505 C 591.593 458.908 567.35 483.489 554.282 513.296 C 553.262 515.623 551.662 518.937 550.246 520.973 C 542.485 532.127 533.917 542.875 526.205 554.05 L 466.438 642.351 C 458.16 654.528 453.054 666.111 443.303 680.216 C 441.996 687.018 440.262 692.785 438.993 698.979 C 438.444 704.161 437.699 709.389 438.074 714.577 L 438.163 855.657 C 438.117 882.694 437.111 947.852 441.974 971.543 C 443.557 988.309 445.524 996.843 424.543 996.406 C 396.398 995.82 368.185 996.174 340.036 995.788 C 332.849 995.668 307.754 996.843 302.571 995.578 C 299.787 992.394 299.953 987.025 299.788 982.791 C 299.333 958.02 299.872 935.122 299.757 910.684 L 298.71 796.523 C 298.625 763.297 300.308 714.793 295.176 681.238 C 294.025 673.712 266.452 639.037 259.703 630.743 C 258.561 628.362 249.934 617.235 247.884 614.497 L 222.404 580.335 C 219.284 576.151 217.231 568.091 212.435 561.008 C 202.641 546.541 191.826 536.885 181.406 523.32 C 180.515 518.811 180.653 514.914 179.37 510.107 C 175.933 508.172 173.035 510.033 167.639 508.855 C 158.317 496.282 187.451 474.446 194.982 465.943 C 205.223 464.922 207.736 464.011 214.696 472.287 C 220.871 473.777 229.412 467.28 235.445 463.909 C 240.877 456.218 241.346 451.339 242.877 442.256 C 247.95 441.523 254.071 438.514 259.043 440.53 C 265.975 443.341 276.466 488.078 292.464 497.302 C 302.788 498.062 300.365 471.487 300.421 463.982 C 320.448 468.796 308.9 468.179 317.261 477.356 C 335.197 497.042 350.306 516.759 366.292 537.926 C 374.503 539.397 384.312 542.817 388.419 533.569 C 408.952 487.34 417.555 510.488 443.558 533.69 C 459.884 512.52 463.105 505.778 466.422 480.103 L 479.956 480.254 C 479.811 486.521 478.798 493.584 484.107 497.632 C 505.331 501.46 485.538 462.452 514.171 448.271 C 526.986 449.866 531.989 449.547 544.863 447.898 C 548.876 444.115 553.157 439.598 557.086 435.642 C 564.55 434.263 570.176 433.709 577.747 433.722 z"/>
<path transform="translate(0,0)" fill="rgb(239,121,49)" d="M 458.145 337.008 C 471.586 315.796 493.518 291.92 509.735 272.266 C 527.403 250.854 543.592 228.66 560.949 207.036 C 565.008 204.88 571.454 205.141 576.238 204.953 C 597.416 216.017 633.909 282.208 651.842 298.906 C 662.731 291.192 672.837 286.421 686.03 284.332 L 684.437 303.749 C 675.978 313.869 672.178 325.753 664.945 335.791 C 652.476 351.722 644.199 369.223 634.008 386.37 C 626.37 399.22 618.99 406.271 613.322 421.077 C 612.211 423.425 609.198 429.36 608.425 431.505 C 602.387 436.505 584.911 435.57 577.747 433.722 L 577.949 430.306 C 566.715 426.127 523.573 407.635 529.028 392.829 C 536.41 385.058 560.482 399.498 562.404 378.193 C 562.85 373.248 563.338 368.778 561.936 363.913 C 560.119 360.925 557.663 360.486 554.266 359.195 C 553.538 346.011 552.584 336.969 562.275 328.082 C 572.565 318.645 572.587 255.135 564.575 248.372 C 566.003 247.742 566.35 247.213 567.53 246.148 L 567.285 243.804 C 563.879 241.617 558.514 241.391 555.9 244.959 C 557.199 247.799 558.966 248.267 561.816 249.742 C 555.954 252.489 554.335 265.022 550.389 268.38 C 541.236 276.168 534.732 287.134 526.647 295.185 C 502.873 318.862 486.415 349.835 463.374 373.31 C 450.992 385.924 434.958 342.953 424.369 340.59 C 411.754 345.372 417.25 377.837 422.432 386.226 C 423.665 388.222 426.603 395.846 426.354 397.854 C 419.923 409.166 394.06 417.335 388.794 428.161 L 386.576 433.939 C 379.823 430.55 373.328 416.105 362.515 409.248 C 346.862 399.322 329.532 428.594 318.388 418.937 C 312.504 413.838 303.199 396.608 296.124 390.637 C 294.905 389.609 294.4 382.816 292.563 381.413 C 277.589 367.511 266.055 351.618 252.907 336.269 C 246.381 328.651 237.449 321.039 230.29 313.631 C 228.319 336.691 234.269 356.557 237.464 379.018 C 238.859 388.823 230.922 387.281 225.233 391.377 C 217.37 397.037 207.26 411.969 196.695 412.183 C 186.079 406.613 200.368 382.271 187.596 378.453 C 179.004 383.431 165.429 398.71 151.063 407.374 C 149.786 410.594 148.558 414.298 147.381 417.597 L 136.368 423.192 C 134.989 428.387 135.185 430.229 131.092 433.023 C 122.717 434.156 110.293 415.961 110.763 413.168 C 115.98 380.059 151.496 353.312 170.384 327.375 C 183.182 309.8 202.155 290.184 211.191 271.68 C 218.554 270.208 228.225 269.271 235.753 270.011 C 240.637 270.951 241.707 279.142 244.961 282.246 C 265.639 301.965 280.208 326.005 297.616 348.389 C 305.425 358.43 315.278 368.887 321.891 379.515 C 345.484 364.664 367.455 345.31 388.329 326.852 C 395.755 320.285 398.056 306.707 411.991 300.378 C 421.797 295.923 422.325 297.222 433.151 300.599 C 439.409 317.124 446.304 324.528 458.145 337.008 z"/>
<path transform="translate(0,0)" fill="rgb(176,99,50)" d="M 577.949 430.306 C 580.853 430.134 581.625 430.332 583.94 428.793 L 583.415 423.515 C 587.443 419.546 607.139 420.916 613.322 421.077 C 612.211 423.425 609.198 429.36 608.425 431.505 C 602.387 436.505 584.911 435.57 577.747 433.722 L 577.949 430.306 z"/>
<path transform="translate(0,0)" fill="rgb(239,121,49)" d="M 718.077 299.536 C 720.049 293.73 717.7 287.632 719.889 283.03 C 724.672 281.492 727.966 283.81 732.677 286.068 C 737.472 295.125 744.457 301.688 750.216 310.156 C 781.492 356.146 811.021 402.711 838.134 451.311 C 843.873 461.597 879.968 500.69 867.833 511.033 C 864.335 511.269 862.824 510.591 859.56 509.556 C 857.228 504.844 856.97 499.199 854.803 493.79 C 842.545 487.427 839.179 480.249 831.263 469.339 C 822.436 457.174 812.573 450.059 809.897 435.058 L 802.293 434.206 L 803.412 434.416 C 792.165 417.117 779.481 396.58 765.929 381.368 C 753.74 367.686 742.075 361.665 735.824 342.172 C 732.606 332.138 732.187 324.332 723.176 318.477 L 721.564 318.691 L 720.688 321.658 C 720.01 319.884 719.225 304.842 718.077 299.536 z"/>
<path transform="translate(0,0)" fill="url(#Gradient1)" d="M 259.703 630.743 C 266.452 639.037 294.025 673.712 295.176 681.238 C 300.308 714.793 298.625 763.297 298.71 796.523 L 299.757 910.684 C 299.872 935.122 299.333 958.02 299.788 982.791 C 298.227 989.967 301.541 998.412 297.818 1002.6 C 293.605 1002.8 291.615 1002.98 287.427 1002.29 C 285.846 993.879 286.244 982.052 285.724 973.087 C 283.305 931.307 285.183 889.101 284.528 847.23 C 284.359 836.444 286.623 824.758 286.515 813.989 C 286.343 796.719 283.148 779.599 283.888 762.264 C 284.247 750.027 289.257 709.354 286.238 700.56 L 283.999 693.959 C 285.754 690.676 285.845 690.199 286.22 686.485 C 285.477 684.717 284.897 681.323 284.396 680.495 C 281.951 676.46 276.523 673.886 273.25 669.914 C 270.569 666.66 272.642 663.268 273.216 658.244 L 272.193 657.255 C 271.089 660.347 271.437 660.866 269.14 662.852 C 261.247 658.531 257.205 639.755 259.703 630.743 z"/>
<path transform="translate(0,0)" fill="rgb(22,42,57)" fill-opacity="0.780392" d="M 438.993 698.979 C 440.262 692.785 441.996 687.018 443.303 680.216 L 443.378 681.323 C 444.03 690.363 446.449 695.718 446.893 707.317 C 447.943 734.733 447.4 761.691 447.403 789.087 L 447.878 917.735 C 446.592 926.454 448.026 943.561 445.479 952.022 C 440.786 940.161 442.782 877.257 442.471 860.412 C 441.522 809.059 442.93 756.519 441.963 705.165 C 442.374 701.715 442.329 700.912 440.6 698.691 L 438.993 698.979 z"/>
<path transform="translate(0,0)" fill="rgb(22,42,57)" fill-opacity="0.364706" d="M 438.074 714.577 C 438.887 711.334 438.754 709.804 439.916 705.904 L 441.963 705.165 C 442.93 756.519 441.522 809.059 442.471 860.412 C 442.782 877.257 440.786 940.161 445.479 952.022 C 448.026 943.561 446.592 926.454 447.878 917.735 C 448.502 929.326 448.972 952.338 446.406 963.065 C 444.749 963.381 444.66 963.122 442.931 962.627 L 446.313 963.217 L 443.42 961.873 C 441.594 964.839 442.225 967.607 441.974 971.543 C 437.111 947.852 438.117 882.694 438.163 855.657 L 438.074 714.577 z"/>
<path transform="translate(0,0)" fill="rgb(29,44,58)" fill-opacity="0.815686" d="M 723.385 351.552 C 724.874 355.35 724.537 356.404 727.417 358.459 L 733.308 358.723 C 737.251 363.466 734.72 373.077 734.285 379.275 C 733.785 376.11 733.815 373.405 731.802 371.039 C 726.481 376.044 726.706 400.653 715.436 404.053 C 699.79 402.214 706.276 373.322 705.821 361.152 C 711.264 361.607 716.222 362.741 720.741 359.867 C 723.075 357.22 722.983 355.014 723.385 351.552 z"/>
<path transform="translate(0,0)" fill="rgb(29,44,58)" fill-opacity="0.960784" d="M 864.277 993.643 L 865.323 992.845 C 875.844 992.137 887.757 992.676 898.473 992.419 L 976.241 990.825 C 980.984 990.737 1010.17 988.813 1011.1 989.127 C 1005 998.975 980.099 994.552 969.182 994.447 L 864.277 993.643 z"/>
<path transform="translate(0,0)" fill="rgb(29,44,58)" fill-opacity="0.662745" d="M 690.855 330.215 C 709.593 333.841 697.89 356.345 692.691 367.355 C 694.167 358.953 693.197 338.223 690.855 330.215 z"/>
<path transform="translate(0,0)" fill="rgb(229,137,63)" d="M 386.576 433.939 L 388.794 428.161 C 393.242 432.408 405.313 441.94 400.516 448.184 C 394.745 448.442 390.957 437.893 386.576 433.939 z"/>
<path transform="translate(0,0)" fill="rgb(229,137,63)" fill-opacity="0.988235" d="M 869.971 512.33 C 875.779 511.758 877.886 510.506 882.045 514.691 C 882.866 518.461 883.392 520.323 883.371 524.205 C 878.169 523.183 873.888 522.715 870.42 518.46 C 869.296 514.462 869.172 515.827 869.971 512.33 z"/>
<path transform="translate(0,0)" fill="rgb(229,137,63)" fill-opacity="0.980392" d="M 561.816 249.742 C 558.966 248.267 557.199 247.799 555.9 244.959 C 558.514 241.391 563.879 241.617 567.285 243.804 L 567.53 246.148 C 566.35 247.213 566.003 247.742 564.575 248.372 L 561.816 249.742 z"/>
<path transform="translate(0,0)" fill="rgb(22,42,57)" fill-opacity="0.564706" d="M 438.993 698.979 L 440.6 698.691 C 442.329 700.912 442.374 701.715 441.963 705.165 L 439.916 705.904 C 438.754 709.804 438.887 711.334 438.074 714.577 C 437.699 709.389 438.444 704.161 438.993 698.979 z"/>
</svg>